<?xml version="1.0" encoding="UTF-8"?><svg id="Layer_2" xmlns="http://www.w3.org/2000/svg" viewBox="0 0 304.7 508.47"><g id="Layer_1-2"><path d="M290.34,218.12c-2.55-2.57-5.38-4.74-8.32-6.63L84.94,14.41c-19.23-19.22-50.41-19.23-69.65,0C-3.94,33.65-3.94,64.83,15.29,84.08L185.03,253.8,14.43,424.41c-19.24,19.22-19.24,50.41,0,69.65,9.62,9.6,22.22,14.41,34.81,14.41s25.22-4.81,34.81-14.43l197.97-197.94c2.94-1.89,5.75-4.05,8.32-6.63,9.85-9.85,14.57-22.78,14.36-35.68,.23-12.91-4.51-25.86-14.36-35.68Z"/></g></svg>