<svg width="24" height="24" viewBox="0 0 24 24" fill="none" xmlns="http://www.w3.org/2000/svg">
<g clip-path="url(#clip0_663_1590)">
<path d="M22.5 21.75H21.75V6.375C21.75 5.34 20.91 4.5 19.875 4.5H18.375C17.34 4.5 16.5 5.34 16.5 6.375V21.75H14.625V11.625C14.625 10.59 13.785 9.75 12.75 9.75H11.25C10.215 9.75 9.375 10.59 9.375 11.625V21.75H7.5V16.125C7.5 15.09 6.66 14.25 5.625 14.25H4.125C3.09 14.25 2.25 15.09 2.25 16.125V21.75H1.5C1.0875 21.75 0.75 22.0875 0.75 22.5C0.75 22.9125 1.0875 23.25 1.5 23.25H22.5C22.9125 23.25 23.25 22.9125 23.25 22.5C23.25 22.0875 22.9125 21.75 22.5 21.75ZM18.375 6H19.875C20.085 6 20.25 6.165 20.25 6.375V7.5H18V6.375C18 6.165 18.165 6 18.375 6ZM18 9H20.25V21.75H18V9ZM11.25 11.25H12.75C12.96 11.25 13.125 11.415 13.125 11.625V12.75H10.875V11.625C10.875 11.415 11.04 11.25 11.25 11.25ZM10.875 14.25H13.125V21.75H10.875V14.25ZM4.125 15.75H5.625C5.835 15.75 6 15.915 6 16.125V17.25H3.75V16.125C3.75 15.915 3.915 15.75 4.125 15.75ZM3.75 18.75H6V21.75H3.75V18.75Z" fill="white" fill-opacity="0.2"/>
<path d="M2.625 7.5H10.875C11.91 7.5 12.75 6.66 12.75 5.625V2.625C12.75 1.59 11.91 0.75 10.875 0.75H2.625C1.59 0.75 0.75 1.59 0.75 2.625V5.625C0.75 6.66 1.59 7.5 2.625 7.5ZM6.375 3.375H10.125C10.5375 3.375 10.875 3.7125 10.875 4.125C10.875 4.5375 10.5375 4.875 10.125 4.875H6.375C5.9625 4.875 5.625 4.5375 5.625 4.125C5.625 3.7125 5.9625 3.375 6.375 3.375ZM2.625 3.75C2.625 3.3375 2.9625 3 3.375 3C3.7875 3 4.125 3.3375 4.125 3.75V4.5C4.125 4.9125 3.7875 5.25 3.375 5.25C2.9625 5.25 2.625 4.9125 2.625 4.5V3.75Z" fill="#7738C8"/>
</g>
<defs>
<clipPath id="clip0_663_1590">
<rect width="24" height="24" fill="white"/>
</clipPath>
</defs>
</svg>
