<svg width="24" height="24" viewBox="0 0 24 24" fill="none" xmlns="http://www.w3.org/2000/svg">
<path d="M21.848 0H4.856C4.2859 0.00210759 3.73976 0.229512 3.33663 0.632635C2.93351 1.03576 2.70611 1.5819 2.704 2.152V4.304H2.152C1.5819 4.30611 1.03576 4.53351 0.632635 4.93663C0.229512 5.33976 0.00210759 5.8859 0 6.456V21.848C0.00210759 22.4181 0.229512 22.9642 0.632635 23.3674C1.03576 23.7705 1.5819 23.9979 2.152 24H21.848C22.4181 23.9979 22.9642 23.7705 23.3674 23.3674C23.7705 22.9642 23.9979 22.4181 24 21.848V2.152C23.9979 1.5819 23.7705 1.03576 23.3674 0.632635C22.9642 0.229512 22.4181 0.00210759 21.848 0ZM2.152 22.4C2.0056 22.4 1.8652 22.3418 1.76168 22.2383C1.65816 22.1348 1.6 21.9944 1.6 21.848V6.456C1.6 6.3096 1.65816 6.1692 1.76168 6.06568C1.8652 5.96216 2.0056 5.904 2.152 5.904H17.544C17.6904 5.904 17.8308 5.96216 17.9343 6.06568C18.0378 6.1692 18.096 6.3096 18.096 6.456V21.848C18.0953 22.0344 18.1195 22.22 18.168 22.4H2.152ZM22.4 21.848C22.4 21.9944 22.3418 22.1348 22.2383 22.2383C22.1348 22.3418 21.9944 22.4 21.848 22.4H20.248C20.1016 22.4 19.9612 22.3418 19.8577 22.2383C19.7542 22.1348 19.696 21.9944 19.696 21.848V6.456C19.6939 5.8859 19.4665 5.33976 19.0634 4.93663C18.6602 4.53351 18.1141 4.30611 17.544 4.304H4.304V2.152C4.304 2.07951 4.31828 2.00773 4.34602 1.94076C4.37376 1.87379 4.41442 1.81293 4.46568 1.76168C4.51693 1.71042 4.57779 1.66976 4.64476 1.64202C4.71173 1.61428 4.78351 1.6 4.856 1.6H21.848C21.9205 1.6 21.9923 1.61428 22.0592 1.64202C22.1262 1.66976 22.1871 1.71042 22.2383 1.76168C22.2896 1.81293 22.3302 1.87379 22.358 1.94076C22.3857 2.00773 22.4 2.07951 22.4 2.152V21.848Z" fill="white" fill-opacity="0.2"/>
<path d="M15.0483 18.7039H4.64827C4.43609 18.7039 4.23261 18.7882 4.08258 18.9382C3.93255 19.0882 3.84827 19.2917 3.84827 19.5039C3.84827 19.7161 3.93255 19.9195 4.08258 20.0696C4.23261 20.2196 4.43609 20.3039 4.64827 20.3039H15.0483C15.2604 20.3039 15.4639 20.2196 15.614 20.0696C15.764 19.9195 15.8483 19.7161 15.8483 19.5039C15.8483 19.2917 15.764 19.0882 15.614 18.9382C15.4639 18.7882 15.2604 18.7039 15.0483 18.7039Z" fill="#7738C8"/>
<path d="M15.048 15.5038H8.64802C8.43585 15.5038 8.23237 15.5881 8.08234 15.7382C7.93231 15.8882 7.84802 16.0917 7.84802 16.3038C7.84802 16.516 7.93231 16.7195 8.08234 16.8695C8.23237 17.0196 8.43585 17.1038 8.64802 17.1038H15.048C15.2602 17.1038 15.4637 17.0196 15.6137 16.8695C15.7637 16.7195 15.848 16.516 15.848 16.3038C15.848 16.0917 15.7637 15.8882 15.6137 15.7382C15.4637 15.5881 15.2602 15.5038 15.048 15.5038Z" fill="#7738C8"/>
<path d="M4.64827 17.1038H5.04827C5.26044 17.1038 5.46392 17.0196 5.61395 16.8695C5.76398 16.7195 5.84827 16.516 5.84827 16.3038C5.84827 16.0917 5.76398 15.8882 5.61395 15.7382C5.46392 15.5881 5.26044 15.5038 5.04827 15.5038H4.64827C4.43609 15.5038 4.23261 15.5881 4.08258 15.7382C3.93255 15.8882 3.84827 16.0917 3.84827 16.3038C3.84827 16.516 3.93255 16.7195 4.08258 16.8695C4.23261 17.0196 4.43609 17.1038 4.64827 17.1038Z" fill="#7738C8"/>
<path d="M14.2482 7.50378H5.44824C4.34367 7.50378 3.44824 8.39921 3.44824 9.50378V11.9038C3.44824 13.0084 4.34367 13.9038 5.44824 13.9038H14.2482C15.3528 13.9038 16.2482 13.0084 16.2482 11.9038V9.50378C16.2482 8.39921 15.3528 7.50378 14.2482 7.50378Z" fill="#7738C8"/>
</svg>
