<svg width="24" height="24" viewBox="0 0 24 24" fill="none" xmlns="http://www.w3.org/2000/svg">
<g clip-path="url(#clip0_663_1562)">
<path d="M22.5525 14.2725C22.4625 14.2725 21.87 14.2275 21 14.2575V12.12C21 11.745 20.73 11.43 20.3625 11.3775C16.05 10.74 13.1775 12.9975 12 14.1825C10.8225 12.9975 7.95 10.74 3.6375 11.3775C3.27 11.43 3 11.745 3 12.12V14.2575C2.13 14.2275 1.5375 14.265 1.4475 14.2725C1.0575 14.3025 0.75 14.625 0.75 15.0225V17.775C0.75 17.9775 0.8325 18.1725 0.975 18.315C1.1175 18.4575 1.32 18.54 1.5225 18.525C7.335 18.3375 8.985 20.9175 9.42 22.035C9.705 22.77 10.395 23.2425 11.175 23.2425H12.825C13.605 23.2425 14.295 22.77 14.58 22.035C15.015 20.91 16.665 18.3375 22.4775 18.525C22.6725 18.54 22.875 18.4575 23.025 18.315C23.175 18.1725 23.25 17.9775 23.25 17.775V15.0225C23.25 14.6325 22.9425 14.3025 22.5525 14.2725ZM19.5 12.7875V14.355C17.37 14.58 14.595 15.24 12.75 17.025V15.57C13.35 14.8725 15.69 12.495 19.5 12.7875ZM4.5 12.7875C8.31 12.5025 10.65 14.88 11.25 15.57V17.025C9.405 15.24 6.63 14.58 4.5 14.355V12.7875ZM21.75 17.01C15.585 17.0475 13.71 20.13 13.1775 21.4875C13.1175 21.645 12.9825 21.7425 12.825 21.7425H11.175C11.0175 21.7425 10.8825 21.645 10.8225 21.4875C10.29 20.1225 8.415 17.0475 2.25 17.01V15.7425C4.2 15.705 9.7725 16.0425 11.31 19.6875C11.43 19.965 11.7 20.145 12 20.145C12.3 20.145 12.5775 19.965 12.69 19.6875C14.22 16.05 19.7925 15.7575 21.75 15.75V17.0175V17.01Z" fill="white" fill-opacity="0.2"/>
<path d="M11.5575 5.20499C13.14 5.50499 14.505 4.13999 14.205 2.55749C14.04 1.67999 13.32 0.959986 12.435 0.787486C10.8525 0.487486 9.48752 1.85249 9.78752 3.43499C9.95252 4.31249 10.6725 5.03249 11.5575 5.20499Z" fill="#7738C8"/>
<path d="M14.67 5.625C13.9875 6.315 13.0425 6.75 12 6.75C10.9575 6.75 10.0125 6.315 9.33 5.625C8.6625 6.3 8.25 7.23 8.25 8.25V9C8.25 9.4125 8.5875 9.75 9 9.75H15C15.4125 9.75 15.75 9.4125 15.75 9V8.25C15.75 7.23 15.3375 6.3 14.67 5.625Z" fill="#7738C8"/>
</g>
<defs>
<clipPath id="clip0_663_1562">
<rect width="24" height="24" fill="white"/>
</clipPath>
</defs>
</svg>
