<svg width="24" height="24" viewBox="0 0 24 24" fill="none" xmlns="http://www.w3.org/2000/svg">
<g clip-path="url(#clip0_663_1602)">
<g clip-path="url(#clip1_663_1602)">
<path d="M6.48 17.8275C6.8775 17.37 7.125 16.7775 7.125 16.125C7.125 14.6775 5.9475 13.5 4.5 13.5C3.0525 13.5 1.875 14.6775 1.875 16.125C1.875 16.7775 2.1225 17.37 2.52 17.8275C1.4625 18.4875 0.75 19.6575 0.75 21V21.375C0.75 22.41 1.59 23.25 2.625 23.25H6.375C7.41 23.25 8.25 22.41 8.25 21.375V21C8.25 19.6575 7.5375 18.495 6.48 17.8275ZM3.375 16.125C3.375 15.5025 3.8775 15 4.5 15C5.1225 15 5.625 15.5025 5.625 16.125C5.625 16.7475 5.1225 17.25 4.5 17.25C3.8775 17.25 3.375 16.7475 3.375 16.125ZM6.75 21.375C6.75 21.585 6.585 21.75 6.375 21.75H2.625C2.415 21.75 2.25 21.585 2.25 21.375V21C2.25 19.7625 3.2625 18.75 4.5 18.75C5.7375 18.75 6.75 19.7625 6.75 21V21.375Z" fill="white" fill-opacity="0.2"/>
<path d="M21.48 17.8275C21.8775 17.37 22.125 16.7775 22.125 16.125C22.125 14.6775 20.9475 13.5 19.5 13.5C18.0525 13.5 16.875 14.6775 16.875 16.125C16.875 16.7775 17.1225 17.37 17.52 17.8275C16.4625 18.4875 15.75 19.6575 15.75 21V21.375C15.75 22.41 16.59 23.25 17.625 23.25H21.375C22.41 23.25 23.25 22.41 23.25 21.375V21C23.25 19.6575 22.5375 18.495 21.48 17.8275ZM18.375 16.125C18.375 15.5025 18.8775 15 19.5 15C20.1225 15 20.625 15.5025 20.625 16.125C20.625 16.7475 20.1225 17.25 19.5 17.25C18.8775 17.25 18.375 16.7475 18.375 16.125ZM21.75 21.375C21.75 21.585 21.585 21.75 21.375 21.75H17.625C17.415 21.75 17.25 21.585 17.25 21.375V21C17.25 19.7625 18.2625 18.75 19.5 18.75C20.7375 18.75 21.75 19.7625 21.75 21V21.375Z" fill="white" fill-opacity="0.2"/>
<path d="M15.5325 17.0925L12.75 14.31V11.9925C12.75 11.58 12.4125 11.2425 12 11.2425C11.5875 11.2425 11.25 11.58 11.25 11.9925V14.31L8.46754 17.0925C8.17504 17.385 8.17504 17.8575 8.46754 18.15C8.76004 18.4425 9.23254 18.4425 9.52504 18.15L11.9925 15.6825L14.46 18.15C14.61 18.3 14.7975 18.3675 14.9925 18.3675C15.1875 18.3675 15.375 18.2925 15.525 18.15C15.8175 17.8575 15.8175 17.385 15.525 17.0925H15.5325Z" fill="white" fill-opacity="0.2"/>
<path d="M12 5.25C13.2426 5.25 14.25 4.24264 14.25 3C14.25 1.75736 13.2426 0.75 12 0.75C10.7574 0.75 9.75 1.75736 9.75 3C9.75 4.24264 10.7574 5.25 12 5.25Z" fill="#7738C8"/>
<path d="M10.125 10.5H13.875C14.91 10.5 15.75 9.66 15.75 8.625V8.25C15.75 7.23 15.3375 6.3 14.67 5.625C13.9875 6.315 13.0425 6.75 12 6.75C10.9575 6.75 10.0125 6.315 9.33 5.625C8.6625 6.3 8.25 7.23 8.25 8.25V8.625C8.25 9.66 9.09 10.5 10.125 10.5Z" fill="#7738C8"/>
</g>
</g>
<defs>
<clipPath id="clip0_663_1602">
<rect width="24" height="24" fill="white"/>
</clipPath>
<clipPath id="clip1_663_1602">
<rect width="24" height="24" fill="white"/>
</clipPath>
</defs>
</svg>
