<svg width="27" height="27" viewBox="0 0 27 27" fill="none" xmlns="http://www.w3.org/2000/svg">
<g clip-path="url(#clip0_3419_8146)">
<mask id="path-1-outside-1_3419_8146" maskUnits="userSpaceOnUse" x="0" y="0.5" width="26" height="26" fill="black">
<rect fill="white" y="0.5" width="26" height="26"/>
<path d="M24.96 12.98V13.46L14.12 24.42L11.36 21.98L18.12 15.18L1.4 15.18L1.4 11.26L18.12 11.26L11.36 4.46L14.12 2.02L24.96 12.98Z"/>
</mask>
<path d="M24.96 12.98H25.96V12.569L25.671 12.2768L24.96 12.98ZM24.96 13.46L25.671 14.1632L25.96 13.871V13.46H24.96ZM14.12 24.42L13.4577 25.1692L14.1661 25.7955L14.831 25.1232L14.12 24.42ZM11.36 21.98L10.6508 21.275L9.90328 22.0269L10.6977 22.7292L11.36 21.98ZM18.12 15.18L18.8292 15.885L20.5242 14.18H18.12V15.18ZM1.4 15.18H0.4L0.4 16.18H1.4L1.4 15.18ZM1.4 11.26V10.26H0.4L0.4 11.26H1.4ZM18.12 11.26V12.26H20.5242L18.8292 10.555L18.12 11.26ZM11.36 4.46L10.6977 3.7108L9.90328 4.41307L10.6508 5.16502L11.36 4.46ZM14.12 2.02L14.831 1.31679L14.1661 0.644517L13.4577 1.27079L14.12 2.02ZM23.96 12.98V13.46H25.96V12.98H23.96ZM24.249 12.7568L13.409 23.7168L14.831 25.1232L25.671 14.1632L24.249 12.7568ZM14.7823 23.6708L12.0223 21.2308L10.6977 22.7292L13.4577 25.1692L14.7823 23.6708ZM12.0692 22.685L18.8292 15.885L17.4108 14.475L10.6508 21.275L12.0692 22.685ZM18.12 14.18L1.4 14.18L1.4 16.18H18.12V14.18ZM2.4 15.18L2.4 11.26H0.4L0.4 15.18H2.4ZM1.4 12.26L18.12 12.26V10.26L1.4 10.26L1.4 12.26ZM18.8292 10.555L12.0692 3.75498L10.6508 5.16502L17.4108 11.965L18.8292 10.555ZM12.0223 5.2092L14.7823 2.7692L13.4577 1.27079L10.6977 3.7108L12.0223 5.2092ZM13.409 2.7232L24.249 13.6832L25.671 12.2768L14.831 1.31679L13.409 2.7232Z" fill="white" mask="url(#path-1-outside-1_3419_8146)"/>
</g>
<defs>
<clipPath id="clip0_3419_8146">
<rect width="27" height="27" fill="white"/>
</clipPath>
</defs>
</svg>
