<svg width="52" height="90" viewBox="0 0 52 90" fill="none" xmlns="http://www.w3.org/2000/svg">
<g clip-path="url(#clip0_663_1585)">
<path d="M45.0205 82.5607C46.638 78.35 47.613 74.0817 48.0307 69.6008C48.1233 68.5994 46.5765 68.384 46.3143 69.3243C45.7925 71.1734 45.3264 73.0396 44.9015 74.9059C43.1688 65.8471 38.7517 54.9277 31.1166 49.7885C31.4445 47.0706 31.3651 44.2885 31.1129 41.7242C29.495 25.54 17.554 14.7278 4.49707 6.61182C4.1702 6.41443 3.88018 6.90839 4.19003 7.12027C12.1103 12.5804 20.1509 18.4023 25.0891 26.8857C28.6154 32.947 31.0116 41.5226 30.0005 49.1063C28.2692 48.1021 26.3843 47.3934 24.3334 47.0553C19.7807 46.3051 14.7432 48.0128 12.8387 52.4798C11.281 56.1401 12.3475 60.6252 16.0824 62.4014C20.401 64.4558 25.4521 62.2194 28.0456 58.5402C29.4117 56.6062 30.2548 54.3482 30.7442 51.9921C30.8966 52.109 31.0491 52.2258 31.1943 52.3548C38.9971 59.0491 43.0335 69.9286 43.8759 79.9284C43.8804 80.0302 43.9214 80.1128 43.943 80.2002C43.8697 80.4037 43.806 80.6048 43.7327 80.8084C42.2255 79.4604 41.0388 77.9922 40.0059 76.1872C39.4412 75.1936 37.8841 76.0623 38.4488 77.0559C39.8582 79.5095 41.4611 81.3282 43.685 83.076C44.1714 83.4605 44.8081 83.0355 44.9913 82.5679L45.0205 82.5607ZM27.5465 56.6446C25.9135 59.4582 23.2299 61.5631 19.8731 61.6094C14.7602 61.6773 12.2625 56.4024 14.8793 52.1921C18.1807 46.8753 25.1183 48.2314 29.6405 51.1935C29.2008 53.1252 28.5238 54.9714 27.5489 56.6543L27.5465 56.6446Z" fill="#ADEF38"/>
</g>
<defs>
<clipPath id="clip0_663_1585">
<rect width="83.99" height="31.82" fill="white" transform="translate(30.8917) rotate(76.1263)"/>
</clipPath>
</defs>
</svg>
